# xmcd
#
# Track frame offsets: 
#        150
#        11345
#        28981
#        42793
#        58450
#        73308
#        91818
#        108530
#        120938
#        139972
#        155397
#        169691
#        181825
#        199162
#        214549
#        228533
#        245369
#        258633
#        274725
#        288623
#
# Disc length: 4128 seconds
#
# Revision: 1
# Processed by: cddbd v1.5.2PL0 Copyright (c) Steve Scherf et al.
# Submitted via: ExactAudioCopy v1.0b3
#
DISCID=28101e14
DTITLE=Parton, Dolly - Songs Of Love And Heartache
DYEAR=1900
DGENRE=Country
TTITLE0=Put A Little Love In Your Heart
TTITLE1=Yellow Roses
TTITLE2=(You Got Me Over) A Heartache Tonight
TTITLE3=Slow Dancing With The Moon
TTITLE4=Parton, Dolly with Vince Gill - I Will Always Love You
TTITLE5=More Than I Can Say
TTITLE6=Jolene
TTITLE7=If You Need Me
TTITLE8=What Is It My Love
TTITLE9=Parton, Dolly with Ricky Van Shelton - Rockin' Years
TTITLE10=Eagle When She Flies
TTITLE11=To Daddy
TTITLE12=Silver And Gold
TTITLE13=What Will Baby Be?
TTITLE14=Something Special
TTITLE15=Crippled Bird
TTITLE16=True Blue [Live]
TTITLE17=What A Heartache
TTITLE18=Parton, Dolly with Tammy Wynette and Loretta Lynn - Let Her F
TTITLE18=ly
TTITLE19=He's Alive
EXTD=
EXTT0=
EXTT1=
EXTT2=
EXTT3=
EXTT4=
EXTT5=
EXTT6=
EXTT7=
EXTT8=
EXTT9=
EXTT10=
EXTT11=
EXTT12=
EXTT13=
EXTT14=
EXTT15=
EXTT16=
EXTT17=
EXTT18=
EXTT19=
PLAYORDER=
